<svg width="25" height="29" viewBox="0 0 25 29" fill="none" xmlns="http://www.w3.org/2000/svg">
<g clip-path="url(#clip0_2001_2773)">
<path d="M22.3214 1.78613H2.67857C1.96817 1.78613 1.28686 2.06834 0.784535 2.57067C0.282206 3.073 0 3.7543 0 4.4647L0 24.1076C0 24.818 0.282206 25.4993 0.784535 26.0016C1.28686 26.5039 1.96817 26.7861 2.67857 26.7861H10.3376V18.2867H6.82199V14.2861H10.3376V11.237C10.3376 7.76883 12.4023 5.8531 15.5647 5.8531C17.0792 5.8531 18.6629 6.12319 18.6629 6.12319V9.5272H16.918C15.1987 9.5272 14.6624 10.5942 14.6624 11.6885V14.2861H18.5006L17.8867 18.2867H14.6624V26.7861H22.3214C23.0318 26.7861 23.7131 26.5039 24.2155 26.0016C24.7178 25.4993 25 24.818 25 24.1076V4.4647C25 3.7543 24.7178 3.073 24.2155 2.57067C23.7131 2.06834 23.0318 1.78613 22.3214 1.78613Z" fill="#B2784A"/>
</g>
<defs>
<clipPath id="clip0_2001_2773">
<rect width="25" height="28.5714" fill="white"/>
</clipPath>
</defs>
</svg>
