<svg width="25" height="29" viewBox="0 0 25 29" fill="none" xmlns="http://www.w3.org/2000/svg">
<g clip-path="url(#clip0_2001_2771)">
<path d="M12.5 11.3096C11.9113 11.3098 11.336 11.4846 10.8466 11.8118C10.3573 12.139 9.97593 12.6039 9.75081 13.1478C9.52569 13.6917 9.46691 14.2902 9.58188 14.8675C9.69686 15.4448 9.98044 15.9751 10.3968 16.3913C10.8131 16.8074 11.3435 17.0908 11.9208 17.2056C12.4982 17.3203 13.0966 17.2613 13.6405 17.036C14.1843 16.8107 14.6491 16.4292 14.9761 15.9397C15.3031 15.4502 15.4777 14.8748 15.4777 14.2861C15.4771 13.4967 15.1631 12.7398 14.6048 12.1816C14.0465 11.6235 13.2894 11.3099 12.5 11.3096ZM19.4593 9.02162C19.3077 8.63761 19.0789 8.28882 18.787 7.99691C18.4951 7.70499 18.1463 7.47617 17.7623 7.32464C16.5904 6.86203 13.8002 6.96582 12.5 6.96582C11.1998 6.96582 8.41239 6.85812 7.23717 7.32464C6.85315 7.47617 6.50436 7.70499 6.21245 7.99691C5.92053 8.28882 5.69171 8.63761 5.54018 9.02162C5.07812 10.1935 5.18136 12.9865 5.18136 14.2856C5.18136 15.5847 5.07812 18.3743 5.54241 19.5501C5.69394 19.9341 5.92276 20.2829 6.21468 20.5748C6.5066 20.8667 6.85538 21.0955 7.2394 21.2471C8.41127 21.7097 11.2015 21.6059 12.5022 21.6059C13.803 21.6059 16.5893 21.7136 17.7645 21.2471C18.1485 21.0955 18.4973 20.8667 18.7892 20.5748C19.0811 20.2829 19.31 19.9341 19.4615 19.5501C19.9275 18.3782 19.8203 15.5852 19.8203 14.2861C19.8203 12.987 19.9275 10.198 19.4615 9.02218L19.4593 9.02162ZM12.5 18.862C11.595 18.862 10.7103 18.5937 9.95777 18.0908C9.20527 17.588 8.61876 16.8734 8.27243 16.0373C7.92609 15.2011 7.83547 14.2811 8.01203 13.3934C8.18859 12.5058 8.6244 11.6904 9.26435 11.0505C9.90431 10.4105 10.7197 9.97473 11.6073 9.79816C12.4949 9.6216 13.415 9.71222 14.2511 10.0586C15.0873 10.4049 15.8019 10.9914 16.3047 11.7439C16.8075 12.4964 17.0759 13.3811 17.0759 14.2861C17.0766 14.8873 16.9588 15.4826 16.7291 16.0381C16.4994 16.5936 16.1623 17.0984 15.7373 17.5234C15.3122 17.9485 14.8075 18.2855 14.252 18.5152C13.6965 18.7449 13.1011 18.8628 12.5 18.862ZM17.2645 10.5864C17.0532 10.5865 16.8467 10.5239 16.671 10.4066C16.4952 10.2893 16.3583 10.1226 16.2773 9.9274C16.1964 9.73224 16.1752 9.51747 16.2163 9.31025C16.2575 9.10302 16.3592 8.91266 16.5085 8.76323C16.6579 8.6138 16.8482 8.51202 17.0554 8.47076C17.2626 8.4295 17.4774 8.45062 17.6726 8.53145C17.8678 8.61227 18.0346 8.74917 18.152 8.92482C18.2694 9.10048 18.332 9.30701 18.332 9.51828C18.3326 9.65857 18.3055 9.79761 18.2522 9.9274C18.199 10.0572 18.1206 10.1752 18.0216 10.2746C17.9227 10.3741 17.805 10.453 17.6755 10.5069C17.5459 10.5607 17.407 10.5885 17.2667 10.5886L17.2645 10.5864ZM22.3214 1.78613H2.67857C1.96817 1.78613 1.28686 2.06834 0.784535 2.57067C0.282206 3.073 0 3.7543 0 4.4647L0 24.1076C0 24.818 0.282206 25.4993 0.784535 26.0016C1.28686 26.5039 1.96817 26.7861 2.67857 26.7861H22.3214C23.0318 26.7861 23.7131 26.5039 24.2155 26.0016C24.7178 25.4993 25 24.818 25 24.1076V4.4647C25 3.7543 24.7178 3.073 24.2155 2.57067C23.7131 2.06834 23.0318 1.78613 22.3214 1.78613ZM21.3661 17.9692C21.2941 19.3994 20.9676 20.6667 19.9235 21.708C18.8795 22.7493 17.6133 23.0824 16.1847 23.1505C14.7109 23.2337 10.2924 23.2337 8.81864 23.1505C7.38839 23.0785 6.12556 22.7515 5.0798 21.708C4.03404 20.6645 3.70536 19.3966 3.63728 17.9692C3.55413 16.4948 3.55413 12.0758 3.63728 10.6031C3.70926 9.17285 4.03181 7.90555 5.0798 6.86426C6.12779 5.82296 7.39397 5.49372 8.81864 5.42564C10.2924 5.34249 14.7109 5.34249 16.1847 5.42564C17.615 5.49763 18.8817 5.82464 19.9235 6.86816C20.9654 7.91169 21.298 9.17955 21.3661 10.6098C21.4492 12.0785 21.4492 16.4937 21.3661 17.9692Z" fill="#B2784A"/>
</g>
<defs>
<clipPath id="clip0_2001_2771">
<rect width="25" height="28.5714" fill="white"/>
</clipPath>
</defs>
</svg>
