<svg width="246" height="210" viewBox="0 0 246 210" fill="none" xmlns="http://www.w3.org/2000/svg">
<path d="M6.144 198.28C6.144 198.963 6.22933 199.464 6.4 199.784C6.592 200.083 6.944 200.296 7.456 200.424C7.98933 200.552 8.82133 200.616 9.952 200.616C10.016 200.616 10.048 200.68 10.048 200.808C10.048 200.936 10.016 201 9.952 201C9.07733 201 8.39467 200.989 7.904 200.968L5.12 200.936L2.976 200.968C2.57067 200.989 2.02667 201 1.344 201C1.30133 201 1.28 200.936 1.28 200.808C1.28 200.68 1.30133 200.616 1.344 200.616C2.15467 200.616 2.74133 200.563 3.104 200.456C3.488 200.349 3.744 200.147 3.872 199.848C4 199.528 4.064 199.048 4.064 198.408V183.592C4.064 182.952 4 182.483 3.872 182.184C3.744 181.885 3.488 181.683 3.104 181.576C2.74133 181.448 2.15467 181.384 1.344 181.384C1.30133 181.384 1.28 181.32 1.28 181.192C1.28 181.064 1.30133 181 1.344 181L2.944 181.032C3.84 181.075 4.55467 181.096 5.088 181.096C5.62133 181.096 6.21867 181.064 6.88 181C7.136 181 7.54133 180.989 8.096 180.968C8.65067 180.925 9.13067 180.904 9.536 180.904C11.4987 180.904 13.0667 181.341 14.24 182.216C15.4347 183.091 16.032 184.424 16.032 186.216C16.032 187.624 15.68 188.808 14.976 189.768C14.2933 190.728 13.408 191.443 12.32 191.912C11.2533 192.381 10.144 192.616 8.992 192.616C8.352 192.616 7.82933 192.563 7.424 192.456C7.36 192.456 7.328 192.403 7.328 192.296C7.328 192.232 7.33867 192.168 7.36 192.104C7.40267 192.04 7.44533 192.019 7.488 192.04C7.82933 192.125 8.21333 192.168 8.64 192.168C10.048 192.168 11.232 191.709 12.192 190.792C13.1733 189.875 13.664 188.552 13.664 186.824C13.664 185.139 13.2053 183.816 12.288 182.856C11.3707 181.875 10.1973 181.384 8.768 181.384C8 181.384 7.44533 181.427 7.104 181.512C6.76267 181.597 6.51733 181.8 6.368 182.12C6.21867 182.419 6.144 182.931 6.144 183.656V198.28ZM29.7175 199.272C29.8028 199.272 29.8562 199.325 29.8775 199.432C29.8988 199.517 29.8668 199.581 29.7815 199.624L26.4855 201.192C26.4002 201.235 26.3148 201.256 26.2295 201.256C25.9522 201.256 25.7068 201.075 25.4935 200.712C25.2802 200.328 25.1415 199.816 25.0775 199.176L23.4135 200.264C22.8802 200.605 22.4108 200.851 22.0055 201C21.6002 201.149 21.1735 201.224 20.7255 201.224C19.9362 201.224 19.3175 201.021 18.8695 200.616C18.4428 200.189 18.2295 199.656 18.2295 199.016C18.2295 198.376 18.4855 197.821 18.9975 197.352C19.5095 196.883 20.3522 196.435 21.5255 196.008L25.0455 194.696V192.52C25.0455 190.131 24.3735 188.936 23.0295 188.936C22.3042 188.936 21.7495 189.181 21.3655 189.672C21.0028 190.141 20.7575 190.685 20.6295 191.304C20.5655 191.688 20.4482 192.008 20.2775 192.264C20.1068 192.499 19.8188 192.616 19.4135 192.616C19.0722 192.616 18.8055 192.52 18.6135 192.328C18.4428 192.136 18.3575 191.912 18.3575 191.656C18.3575 191.144 18.6882 190.632 19.3495 190.12C20.0108 189.608 20.8002 189.181 21.7175 188.84C22.6348 188.499 23.4562 188.328 24.1815 188.328C25.0562 188.328 25.7175 188.605 26.1655 189.16C26.6135 189.715 26.8375 190.515 26.8375 191.56V197.544C26.8375 198.291 26.9335 198.835 27.1255 199.176C27.3175 199.517 27.6375 199.688 28.0855 199.688C28.4908 199.688 29.0135 199.549 29.6535 199.272H29.7175ZM25.0455 198.728V198.568V195.144L22.0695 196.296C21.4722 196.531 21.0348 196.808 20.7575 197.128C20.5015 197.427 20.3735 197.789 20.3735 198.216C20.3735 198.728 20.5335 199.165 20.8535 199.528C21.1948 199.869 21.6322 200.04 22.1655 200.04C22.5922 200.04 23.1042 199.869 23.7015 199.528L25.0455 198.728ZM31.1238 201C31.0598 201 31.0278 200.936 31.0278 200.808C31.0278 200.68 31.0598 200.616 31.1238 200.616C31.6998 200.616 32.1264 200.563 32.4038 200.456C32.6811 200.328 32.8731 200.115 32.9798 199.816C33.0864 199.496 33.1398 199.027 33.1398 198.408V181.864C33.1398 181.096 33.0651 180.541 32.9158 180.2C32.7664 179.859 32.4998 179.688 32.1158 179.688C31.7958 179.688 31.3051 179.837 30.6438 180.136H30.5798C30.5158 180.136 30.4624 180.083 30.4198 179.976C30.3984 179.869 30.4198 179.805 30.4838 179.784L34.5798 177.832C34.6224 177.811 34.6758 177.8 34.7398 177.8C34.7824 177.8 34.8358 177.832 34.8998 177.896C34.9851 177.939 35.0278 177.992 35.0278 178.056V198.408C35.0278 199.027 35.0704 199.485 35.1558 199.784C35.2624 200.083 35.4544 200.296 35.7318 200.424C36.0091 200.552 36.4358 200.616 37.0118 200.616C37.0758 200.616 37.1078 200.68 37.1078 200.808C37.1078 200.936 37.0758 201 37.0118 201C36.5424 201 36.1584 200.989 35.8598 200.968L34.0677 200.936L32.3398 200.968C32.0411 200.989 31.6358 201 31.1238 201ZM51.3738 199.272C51.4591 199.272 51.5124 199.325 51.5338 199.432C51.5551 199.517 51.5231 199.581 51.4378 199.624L48.1418 201.192C48.0564 201.235 47.9711 201.256 47.8858 201.256C47.6084 201.256 47.3631 201.075 47.1498 200.712C46.9364 200.328 46.7978 199.816 46.7338 199.176L45.0698 200.264C44.5364 200.605 44.0671 200.851 43.6618 201C43.2564 201.149 42.8298 201.224 42.3818 201.224C41.5924 201.224 40.9738 201.021 40.5258 200.616C40.0991 200.189 39.8858 199.656 39.8858 199.016C39.8858 198.376 40.1418 197.821 40.6538 197.352C41.1658 196.883 42.0084 196.435 43.1818 196.008L46.7018 194.696V192.52C46.7018 190.131 46.0298 188.936 44.6858 188.936C43.9604 188.936 43.4058 189.181 43.0218 189.672C42.6591 190.141 42.4138 190.685 42.2858 191.304C42.2218 191.688 42.1044 192.008 41.9338 192.264C41.7631 192.499 41.4751 192.616 41.0698 192.616C40.7284 192.616 40.4618 192.52 40.2698 192.328C40.0991 192.136 40.0138 191.912 40.0138 191.656C40.0138 191.144 40.3444 190.632 41.0058 190.12C41.6671 189.608 42.4564 189.181 43.3738 188.84C44.2911 188.499 45.1124 188.328 45.8378 188.328C46.7124 188.328 47.3738 188.605 47.8218 189.16C48.2698 189.715 48.4938 190.515 48.4938 191.56V197.544C48.4938 198.291 48.5898 198.835 48.7818 199.176C48.9738 199.517 49.2938 199.688 49.7418 199.688C50.1471 199.688 50.6698 199.549 51.3098 199.272H51.3738ZM46.7018 198.728V198.568V195.144L43.7258 196.296C43.1284 196.531 42.6911 196.808 42.4138 197.128C42.1578 197.427 42.0298 197.789 42.0298 198.216C42.0298 198.728 42.1898 199.165 42.5098 199.528C42.8511 199.869 43.2884 200.04 43.8218 200.04C44.2484 200.04 44.7604 199.869 45.3578 199.528L46.7018 198.728ZM64.917 188.648C64.9597 188.648 64.981 188.712 64.981 188.84C64.981 188.968 64.9597 189.032 64.917 189.032C64.3837 189.032 63.925 189.213 63.541 189.576C63.157 189.917 62.7943 190.515 62.453 191.368L58.453 200.968C58.4103 201.075 58.293 201.128 58.101 201.128C57.909 201.128 57.7917 201.075 57.749 200.968L53.269 191.304C52.8423 190.387 52.4797 189.779 52.181 189.48C51.9037 189.181 51.5517 189.032 51.125 189.032C51.061 189.032 51.029 188.968 51.029 188.84C51.029 188.712 51.061 188.648 51.125 188.648C51.5517 188.648 51.8823 188.659 52.117 188.68L53.333 188.712L55.413 188.68C55.733 188.659 56.1597 188.648 56.693 188.648C56.757 188.648 56.789 188.712 56.789 188.84C56.789 188.968 56.757 189.032 56.693 189.032C55.413 189.032 54.773 189.288 54.773 189.8C54.773 189.949 54.8157 190.109 54.901 190.28L58.805 198.536L61.813 191.208C61.9623 190.803 62.037 190.493 62.037 190.28C62.037 189.853 61.8343 189.544 61.429 189.352C61.0237 189.139 60.3837 189.032 59.509 189.032C59.4663 189.032 59.445 188.968 59.445 188.84C59.445 188.712 59.4663 188.648 59.509 188.648C60.085 188.648 60.5223 188.659 60.821 188.68L62.741 188.712L63.893 188.68C64.1063 188.659 64.4477 188.648 64.917 188.648ZM73.8 188.36C74.2693 188.36 74.7173 188.488 75.144 188.744C75.5707 189 75.784 189.309 75.784 189.672C75.784 189.949 75.688 190.184 75.496 190.376C75.3253 190.568 75.0693 190.664 74.728 190.664C74.536 190.664 74.3653 190.632 74.216 190.568C74.088 190.483 73.928 190.365 73.736 190.216C73.544 190.045 73.3627 189.917 73.192 189.832C73.0213 189.747 72.8187 189.704 72.584 189.704C72.3067 189.704 72.008 189.821 71.688 190.056C71.3893 190.291 70.9093 190.792 70.248 191.56V198.408C70.248 199.048 70.3227 199.517 70.472 199.816C70.6427 200.115 70.9413 200.328 71.368 200.456C71.7947 200.563 72.456 200.616 73.352 200.616C73.4373 200.616 73.48 200.68 73.48 200.808C73.48 200.936 73.4373 201 73.352 201C72.6693 201 72.1253 200.989 71.72 200.968L69.352 200.936L67.592 200.968C67.3147 200.989 66.9307 201 66.44 201C66.376 201 66.344 200.936 66.344 200.808C66.344 200.68 66.376 200.616 66.44 200.616C67.016 200.616 67.4427 200.563 67.72 200.456C67.9973 200.328 68.1787 200.115 68.264 199.816C68.3707 199.517 68.424 199.048 68.424 198.408V192.072C68.424 191.347 68.3387 190.824 68.168 190.504C67.9973 190.184 67.7093 190.024 67.304 190.024C66.9627 190.024 66.3867 190.184 65.576 190.504H65.512C65.4267 190.504 65.3627 190.461 65.32 190.376C65.2987 190.269 65.3307 190.195 65.416 190.152L69.128 188.392L69.32 188.36C69.512 188.36 69.7147 188.605 69.928 189.096C70.1413 189.587 70.248 190.216 70.248 190.984V191.016C71.1227 189.992 71.816 189.299 72.328 188.936C72.84 188.552 73.3307 188.36 73.8 188.36ZM89.4363 199.272C89.5216 199.272 89.5749 199.325 89.5963 199.432C89.6176 199.517 89.5856 199.581 89.5003 199.624L86.2043 201.192C86.1189 201.235 86.0336 201.256 85.9483 201.256C85.6709 201.256 85.4256 201.075 85.2123 200.712C84.9989 200.328 84.8603 199.816 84.7963 199.176L83.1323 200.264C82.5989 200.605 82.1296 200.851 81.7243 201C81.3189 201.149 80.8923 201.224 80.4443 201.224C79.6549 201.224 79.0363 201.021 78.5883 200.616C78.1616 200.189 77.9483 199.656 77.9483 199.016C77.9483 198.376 78.2043 197.821 78.7163 197.352C79.2283 196.883 80.0709 196.435 81.2443 196.008L84.7643 194.696V192.52C84.7643 190.131 84.0923 188.936 82.7483 188.936C82.0229 188.936 81.4683 189.181 81.0843 189.672C80.7216 190.141 80.4763 190.685 80.3483 191.304C80.2843 191.688 80.1669 192.008 79.9963 192.264C79.8256 192.499 79.5376 192.616 79.1323 192.616C78.7909 192.616 78.5243 192.52 78.3323 192.328C78.1616 192.136 78.0763 191.912 78.0763 191.656C78.0763 191.144 78.4069 190.632 79.0683 190.12C79.7296 189.608 80.5189 189.181 81.4363 188.84C82.3536 188.499 83.1749 188.328 83.9003 188.328C84.7749 188.328 85.4363 188.605 85.8843 189.16C86.3323 189.715 86.5563 190.515 86.5563 191.56V197.544C86.5563 198.291 86.6523 198.835 86.8443 199.176C87.0363 199.517 87.3563 199.688 87.8043 199.688C88.2096 199.688 88.7323 199.549 89.3723 199.272H89.4363ZM84.7643 198.728V198.568V195.144L81.7883 196.296C81.1909 196.531 80.7536 196.808 80.4763 197.128C80.2203 197.427 80.0923 197.789 80.0923 198.216C80.0923 198.728 80.2523 199.165 80.5723 199.528C80.9136 199.869 81.3509 200.04 81.8843 200.04C82.3109 200.04 82.8229 199.869 83.4203 199.528L84.7643 198.728ZM92.7945 190.6C92.7945 191.347 93.0398 191.944 93.5305 192.392C94.0212 192.819 94.7358 193.277 95.6745 193.768C96.4212 194.152 96.9972 194.483 97.4025 194.76C97.8292 195.037 98.1918 195.4 98.4905 195.848C98.7892 196.296 98.9385 196.84 98.9385 197.48C98.9385 198.568 98.5332 199.485 97.7225 200.232C96.9118 200.979 95.8132 201.352 94.4265 201.352C93.2958 201.352 92.2718 201.032 91.3545 200.392C91.2265 200.307 91.1625 200.179 91.1625 200.008L91.0985 197.512C91.0985 197.448 91.1518 197.416 91.2585 197.416C91.3865 197.395 91.4612 197.416 91.4825 197.48C91.8878 198.547 92.4105 199.357 93.0505 199.912C93.7118 200.467 94.4692 200.744 95.3225 200.744C96.0265 200.744 96.5598 200.573 96.9225 200.232C97.2852 199.891 97.4452 199.389 97.4025 198.728C97.3812 197.917 97.1252 197.299 96.6345 196.872C96.1652 196.424 95.4505 195.965 94.4905 195.496C93.7865 195.155 93.2212 194.845 92.7945 194.568C92.3892 194.291 92.0372 193.928 91.7385 193.48C91.4612 193.032 91.3225 192.477 91.3225 191.816C91.3225 190.664 91.7492 189.789 92.6025 189.192C93.4772 188.573 94.5012 188.264 95.6745 188.264C96.5278 188.264 97.3065 188.424 98.0105 188.744C98.1385 188.787 98.2132 188.84 98.2345 188.904C98.2772 188.947 98.2985 189.011 98.2985 189.096C98.2985 189.523 98.2878 189.853 98.2665 190.088L98.2345 191.432C98.2345 191.475 98.1705 191.496 98.0425 191.496C97.9145 191.496 97.8505 191.475 97.8505 191.432C97.8505 190.984 97.6798 190.568 97.3385 190.184C96.9972 189.779 96.5705 189.459 96.0585 189.224C95.5465 188.989 95.0345 188.872 94.5225 188.872C93.9892 188.872 93.5625 189.021 93.2425 189.32C92.9438 189.597 92.7945 190.024 92.7945 190.6ZM121.027 180.648C122.371 180.648 123.502 180.744 124.419 180.936C125.336 181.128 126.254 181.459 127.171 181.928C127.32 182.013 127.406 182.088 127.427 182.152C127.448 182.216 127.48 182.376 127.523 182.632L127.907 186.44C127.907 186.504 127.843 186.547 127.715 186.568C127.608 186.568 127.544 186.536 127.523 186.472C126.542 182.909 124.344 181.128 120.931 181.128C119.139 181.128 117.56 181.523 116.195 182.312C114.83 183.101 113.774 184.232 113.027 185.704C112.28 187.155 111.907 188.851 111.907 190.792C111.907 192.648 112.312 194.355 113.123 195.912C113.955 197.448 115.064 198.664 116.451 199.56C117.859 200.456 119.384 200.904 121.027 200.904C122.776 200.904 124.195 200.477 125.283 199.624C126.371 198.771 127.203 197.469 127.779 195.72C127.779 195.677 127.832 195.656 127.939 195.656C128.088 195.656 128.163 195.688 128.163 195.752L127.843 199.272C127.822 199.528 127.79 199.688 127.747 199.752C127.704 199.816 127.619 199.891 127.491 199.976C126.382 200.509 125.336 200.883 124.355 201.096C123.395 201.309 122.286 201.416 121.027 201.416C118.787 201.416 116.782 200.979 115.011 200.104C113.262 199.208 111.896 197.96 110.915 196.36C109.934 194.76 109.443 192.925 109.443 190.856C109.443 188.851 109.944 187.08 110.947 185.544C111.95 183.987 113.326 182.781 115.075 181.928C116.846 181.075 118.83 180.648 121.027 180.648ZM143.093 199.272C143.178 199.272 143.231 199.325 143.253 199.432C143.274 199.517 143.242 199.581 143.157 199.624L139.861 201.192C139.775 201.235 139.69 201.256 139.605 201.256C139.327 201.256 139.082 201.075 138.869 200.712C138.655 200.328 138.517 199.816 138.453 199.176L136.789 200.264C136.255 200.605 135.786 200.851 135.381 201C134.975 201.149 134.549 201.224 134.101 201.224C133.311 201.224 132.693 201.021 132.245 200.616C131.818 200.189 131.605 199.656 131.605 199.016C131.605 198.376 131.861 197.821 132.373 197.352C132.885 196.883 133.727 196.435 134.901 196.008L138.421 194.696V192.52C138.421 190.131 137.749 188.936 136.405 188.936C135.679 188.936 135.125 189.181 134.741 189.672C134.378 190.141 134.133 190.685 134.005 191.304C133.941 191.688 133.823 192.008 133.653 192.264C133.482 192.499 133.194 192.616 132.789 192.616C132.447 192.616 132.181 192.52 131.989 192.328C131.818 192.136 131.733 191.912 131.733 191.656C131.733 191.144 132.063 190.632 132.725 190.12C133.386 189.608 134.175 189.181 135.093 188.84C136.01 188.499 136.831 188.328 137.557 188.328C138.431 188.328 139.093 188.605 139.541 189.16C139.989 189.715 140.213 190.515 140.213 191.56V197.544C140.213 198.291 140.309 198.835 140.501 199.176C140.693 199.517 141.013 199.688 141.461 199.688C141.866 199.688 142.389 199.549 143.029 199.272H143.093ZM138.421 198.728V198.568V195.144L135.445 196.296C134.847 196.531 134.41 196.808 134.133 197.128C133.877 197.427 133.749 197.789 133.749 198.216C133.749 198.728 133.909 199.165 134.229 199.528C134.57 199.869 135.007 200.04 135.541 200.04C135.967 200.04 136.479 199.869 137.077 199.528L138.421 198.728ZM153.427 177.768C154.515 177.768 155.4 177.939 156.083 178.28C156.787 178.6 157.139 178.995 157.139 179.464C157.139 179.784 157.021 180.04 156.787 180.232C156.573 180.403 156.317 180.488 156.019 180.488C155.763 180.488 155.539 180.424 155.347 180.296C155.155 180.168 154.952 179.955 154.739 179.656C154.419 179.208 154.067 178.877 153.683 178.664C153.32 178.429 152.861 178.312 152.307 178.312C151.069 178.312 150.088 179.027 149.363 180.456C148.637 181.885 148.275 184.051 148.275 186.952V189C149.256 188.979 150.621 188.872 152.371 188.68C152.435 188.68 152.488 188.755 152.531 188.904C152.573 189.053 152.595 189.235 152.595 189.448C152.595 189.619 152.563 189.8 152.499 189.992C152.435 190.163 152.36 190.237 152.275 190.216C151.037 189.917 149.704 189.747 148.275 189.704V198.408C148.275 199.069 148.349 199.549 148.499 199.848C148.648 200.147 148.936 200.349 149.363 200.456C149.789 200.563 150.472 200.616 151.411 200.616C151.475 200.616 151.507 200.68 151.507 200.808C151.507 200.936 151.475 201 151.411 201L149.363 200.968C148.915 200.947 148.232 200.936 147.315 200.936L145.523 200.968C145.224 200.989 144.797 201 144.243 201C144.179 201 144.147 200.936 144.147 200.808C144.147 200.68 144.179 200.616 144.243 200.616C144.883 200.616 145.352 200.563 145.651 200.456C145.949 200.328 146.152 200.115 146.259 199.816C146.387 199.517 146.451 199.048 146.451 198.408V191.208C146.451 190.653 146.397 190.269 146.291 190.056C146.184 189.821 145.971 189.672 145.651 189.608C145.352 189.523 144.84 189.48 144.115 189.48C144.051 189.48 144.019 189.416 144.019 189.288C144.019 189.139 144.051 189.064 144.115 189.064C144.989 189.064 145.576 188.968 145.875 188.776C146.195 188.563 146.365 188.179 146.387 187.624C146.493 184.168 147.123 181.661 148.275 180.104C149.448 178.547 151.165 177.768 153.427 177.768ZM164.457 199.208C164.521 199.208 164.574 199.251 164.617 199.336C164.681 199.4 164.691 199.464 164.649 199.528C163.241 200.765 161.683 201.384 159.977 201.384C158.739 201.384 157.683 201.096 156.809 200.52C155.934 199.944 155.262 199.187 154.793 198.248C154.345 197.309 154.121 196.307 154.121 195.24C154.121 193.981 154.419 192.829 155.017 191.784C155.614 190.717 156.425 189.885 157.449 189.288C158.494 188.669 159.635 188.36 160.873 188.36C162.067 188.36 162.985 188.68 163.625 189.32C164.265 189.96 164.585 190.856 164.585 192.008C164.585 192.307 164.553 192.52 164.489 192.648C164.446 192.776 164.361 192.84 164.233 192.84L156.297 192.872C156.254 193.341 156.233 193.725 156.233 194.024C156.233 195.88 156.67 197.384 157.545 198.536C158.419 199.688 159.646 200.264 161.225 200.264C161.865 200.264 162.409 200.179 162.857 200.008C163.326 199.837 163.849 199.571 164.425 199.208H164.457ZM159.817 189C158.899 189 158.142 189.309 157.545 189.928C156.947 190.525 156.553 191.368 156.361 192.456L162.441 192.328C162.441 191.24 162.206 190.419 161.737 189.864C161.267 189.288 160.627 189 159.817 189ZM170.415 184.616C169.967 184.616 169.615 184.499 169.359 184.264C169.125 184.029 169.007 183.699 169.007 183.272C169.007 182.845 169.125 182.515 169.359 182.28C169.615 182.045 169.967 181.928 170.415 181.928C170.842 181.928 171.173 182.045 171.407 182.28C171.642 182.515 171.759 182.845 171.759 183.272C171.759 183.699 171.642 184.029 171.407 184.264C171.173 184.499 170.842 184.616 170.415 184.616ZM167.727 201C167.685 201 167.663 200.936 167.663 200.808C167.663 200.68 167.685 200.616 167.727 200.616C168.303 200.616 168.73 200.563 169.007 200.456C169.306 200.328 169.509 200.115 169.615 199.816C169.722 199.496 169.775 199.027 169.775 198.408V192.424C169.775 191.656 169.69 191.101 169.519 190.76C169.37 190.419 169.103 190.248 168.719 190.248C168.335 190.248 167.855 190.397 167.279 190.696H167.247C167.162 190.696 167.098 190.643 167.055 190.536C167.013 190.429 167.023 190.355 167.087 190.312L171.247 188.392L171.375 188.36C171.418 188.36 171.471 188.392 171.535 188.456C171.599 188.499 171.631 188.552 171.631 188.616C171.631 188.765 171.621 189.192 171.599 189.896C171.578 190.6 171.567 191.432 171.567 192.392V198.408C171.567 199.048 171.621 199.517 171.727 199.816C171.834 200.115 172.026 200.328 172.303 200.456C172.581 200.563 173.007 200.616 173.583 200.616C173.647 200.616 173.679 200.68 173.679 200.808C173.679 200.936 173.647 201 173.583 201C173.093 201 172.698 200.989 172.399 200.968L170.671 200.936L168.943 200.968C168.645 200.989 168.239 201 167.727 201ZM190.621 200.616C190.685 200.616 190.717 200.68 190.717 200.808C190.717 200.936 190.685 201 190.621 201C190.131 201 189.747 200.989 189.469 200.968L187.741 200.936L185.981 200.968C185.704 200.989 185.32 201 184.829 201C184.765 201 184.733 200.936 184.733 200.808C184.733 200.68 184.765 200.616 184.829 200.616C185.405 200.616 185.832 200.563 186.109 200.456C186.387 200.328 186.568 200.115 186.653 199.816C186.76 199.517 186.813 199.048 186.813 198.408V193.224C186.813 191.965 186.568 191.037 186.077 190.44C185.608 189.843 184.872 189.544 183.869 189.544C183.208 189.544 182.536 189.725 181.853 190.088C181.192 190.429 180.584 190.909 180.029 191.528V198.408C180.029 199.048 180.072 199.517 180.157 199.816C180.264 200.115 180.456 200.328 180.733 200.456C181.011 200.563 181.437 200.616 182.013 200.616C182.077 200.616 182.109 200.68 182.109 200.808C182.109 200.936 182.077 201 182.013 201C181.523 201 181.139 200.989 180.861 200.968L179.133 200.936L177.373 200.968C177.096 200.989 176.712 201 176.221 201C176.157 201 176.125 200.936 176.125 200.808C176.125 200.68 176.157 200.616 176.221 200.616C176.797 200.616 177.224 200.563 177.501 200.456C177.779 200.328 177.96 200.115 178.045 199.816C178.152 199.517 178.205 199.048 178.205 198.408V192.072C178.205 191.347 178.12 190.824 177.949 190.504C177.779 190.184 177.491 190.024 177.085 190.024C176.744 190.024 176.168 190.184 175.357 190.504H175.293C175.208 190.504 175.144 190.461 175.101 190.376C175.08 190.269 175.112 190.195 175.197 190.152L178.909 188.392L179.101 188.36C179.293 188.36 179.496 188.605 179.709 189.096C179.923 189.587 180.029 190.216 180.029 190.984C180.84 190.045 181.64 189.352 182.429 188.904C183.24 188.456 184.072 188.232 184.925 188.232C186.12 188.232 187.037 188.563 187.677 189.224C188.317 189.885 188.637 190.856 188.637 192.136V198.408C188.637 199.048 188.68 199.517 188.765 199.816C188.872 200.115 189.064 200.328 189.341 200.456C189.619 200.563 190.045 200.616 190.621 200.616ZM204.593 199.272C204.678 199.272 204.731 199.325 204.753 199.432C204.774 199.517 204.742 199.581 204.657 199.624L201.361 201.192C201.275 201.235 201.19 201.256 201.105 201.256C200.827 201.256 200.582 201.075 200.369 200.712C200.155 200.328 200.017 199.816 199.953 199.176L198.289 200.264C197.755 200.605 197.286 200.851 196.881 201C196.475 201.149 196.049 201.224 195.601 201.224C194.811 201.224 194.193 201.021 193.745 200.616C193.318 200.189 193.105 199.656 193.105 199.016C193.105 198.376 193.361 197.821 193.873 197.352C194.385 196.883 195.227 196.435 196.401 196.008L199.921 194.696V192.52C199.921 190.131 199.249 188.936 197.905 188.936C197.179 188.936 196.625 189.181 196.241 189.672C195.878 190.141 195.633 190.685 195.505 191.304C195.441 191.688 195.323 192.008 195.153 192.264C194.982 192.499 194.694 192.616 194.289 192.616C193.947 192.616 193.681 192.52 193.489 192.328C193.318 192.136 193.233 191.912 193.233 191.656C193.233 191.144 193.563 190.632 194.225 190.12C194.886 189.608 195.675 189.181 196.593 188.84C197.51 188.499 198.331 188.328 199.057 188.328C199.931 188.328 200.593 188.605 201.041 189.16C201.489 189.715 201.713 190.515 201.713 191.56V197.544C201.713 198.291 201.809 198.835 202.001 199.176C202.193 199.517 202.513 199.688 202.961 199.688C203.366 199.688 203.889 199.549 204.529 199.272H204.593ZM199.921 198.728V198.568V195.144L196.945 196.296C196.347 196.531 195.91 196.808 195.633 197.128C195.377 197.427 195.249 197.789 195.249 198.216C195.249 198.728 195.409 199.165 195.729 199.528C196.07 199.869 196.507 200.04 197.041 200.04C197.467 200.04 197.979 199.869 198.577 199.528L199.921 198.728ZM220.911 199.176C220.996 199.176 221.049 199.229 221.071 199.336C221.113 199.443 221.103 199.517 221.039 199.56L217.519 201.224C217.391 201.267 217.305 201.288 217.263 201.288C216.985 201.288 216.751 201.053 216.559 200.584C216.367 200.115 216.26 199.464 216.239 198.632C215.449 199.464 214.617 200.136 213.743 200.648C212.889 201.16 211.929 201.416 210.863 201.416C209.967 201.416 209.135 201.16 208.367 200.648C207.62 200.136 207.012 199.421 206.543 198.504C206.095 197.565 205.871 196.499 205.871 195.304C205.871 193.789 206.244 192.499 206.991 191.432C207.737 190.365 208.676 189.565 209.807 189.032C210.937 188.499 212.057 188.232 213.167 188.232C214.297 188.232 215.321 188.509 216.239 189.064V181.896C216.239 181.128 216.153 180.573 215.983 180.232C215.833 179.891 215.567 179.72 215.183 179.72C214.905 179.72 214.415 179.869 213.711 180.168H213.647C213.561 180.168 213.497 180.125 213.455 180.04C213.433 179.933 213.455 179.859 213.519 179.816L217.583 177.832C217.625 177.811 217.679 177.8 217.743 177.8C217.785 177.8 217.839 177.832 217.903 177.896C217.988 177.939 218.031 177.992 218.031 178.056V197.48C218.031 198.248 218.116 198.803 218.287 199.144C218.479 199.485 218.777 199.656 219.183 199.656C219.801 199.656 220.356 199.507 220.847 199.208L220.911 199.176ZM212.111 200.264C212.879 200.264 213.593 200.083 214.255 199.72C214.916 199.336 215.577 198.803 216.239 198.12V191.08C215.727 190.376 215.161 189.832 214.543 189.448C213.924 189.064 213.177 188.872 212.303 188.872C210.959 188.872 209.892 189.352 209.103 190.312C208.335 191.251 207.951 192.595 207.951 194.344C207.951 195.517 208.132 196.552 208.495 197.448C208.857 198.344 209.348 199.037 209.967 199.528C210.607 200.019 211.321 200.264 212.111 200.264ZM234.374 199.272C234.459 199.272 234.512 199.325 234.534 199.432C234.555 199.517 234.523 199.581 234.438 199.624L231.142 201.192C231.056 201.235 230.971 201.256 230.886 201.256C230.608 201.256 230.363 201.075 230.15 200.712C229.936 200.328 229.798 199.816 229.734 199.176L228.07 200.264C227.536 200.605 227.067 200.851 226.662 201C226.256 201.149 225.83 201.224 225.382 201.224C224.592 201.224 223.974 201.021 223.526 200.616C223.099 200.189 222.886 199.656 222.886 199.016C222.886 198.376 223.142 197.821 223.654 197.352C224.166 196.883 225.008 196.435 226.182 196.008L229.702 194.696V192.52C229.702 190.131 229.03 188.936 227.686 188.936C226.96 188.936 226.406 189.181 226.022 189.672C225.659 190.141 225.414 190.685 225.286 191.304C225.222 191.688 225.104 192.008 224.934 192.264C224.763 192.499 224.475 192.616 224.07 192.616C223.728 192.616 223.462 192.52 223.27 192.328C223.099 192.136 223.014 191.912 223.014 191.656C223.014 191.144 223.344 190.632 224.006 190.12C224.667 189.608 225.456 189.181 226.374 188.84C227.291 188.499 228.112 188.328 228.838 188.328C229.712 188.328 230.374 188.605 230.822 189.16C231.27 189.715 231.494 190.515 231.494 191.56V197.544C231.494 198.291 231.59 198.835 231.782 199.176C231.974 199.517 232.294 199.688 232.742 199.688C233.147 199.688 233.67 199.549 234.31 199.272H234.374ZM229.702 198.728V198.568V195.144L226.726 196.296C226.128 196.531 225.691 196.808 225.414 197.128C225.158 197.427 225.03 197.789 225.03 198.216C225.03 198.728 225.19 199.165 225.51 199.528C225.851 199.869 226.288 200.04 226.822 200.04C227.248 200.04 227.76 199.869 228.358 199.528L229.702 198.728ZM237.732 190.6C237.732 191.347 237.977 191.944 238.468 192.392C238.959 192.819 239.673 193.277 240.612 193.768C241.359 194.152 241.935 194.483 242.34 194.76C242.767 195.037 243.129 195.4 243.428 195.848C243.727 196.296 243.876 196.84 243.876 197.48C243.876 198.568 243.471 199.485 242.66 200.232C241.849 200.979 240.751 201.352 239.364 201.352C238.233 201.352 237.209 201.032 236.292 200.392C236.164 200.307 236.1 200.179 236.1 200.008L236.036 197.512C236.036 197.448 236.089 197.416 236.196 197.416C236.324 197.395 236.399 197.416 236.42 197.48C236.825 198.547 237.348 199.357 237.988 199.912C238.649 200.467 239.407 200.744 240.26 200.744C240.964 200.744 241.497 200.573 241.86 200.232C242.223 199.891 242.383 199.389 242.34 198.728C242.319 197.917 242.063 197.299 241.572 196.872C241.103 196.424 240.388 195.965 239.428 195.496C238.724 195.155 238.159 194.845 237.732 194.568C237.327 194.291 236.975 193.928 236.676 193.48C236.399 193.032 236.26 192.477 236.26 191.816C236.26 190.664 236.687 189.789 237.54 189.192C238.415 188.573 239.439 188.264 240.612 188.264C241.465 188.264 242.244 188.424 242.948 188.744C243.076 188.787 243.151 188.84 243.172 188.904C243.215 188.947 243.236 189.011 243.236 189.096C243.236 189.523 243.225 189.853 243.204 190.088L243.172 191.432C243.172 191.475 243.108 191.496 242.98 191.496C242.852 191.496 242.788 191.475 242.788 191.432C242.788 190.984 242.617 190.568 242.276 190.184C241.935 189.779 241.508 189.459 240.996 189.224C240.484 188.989 239.972 188.872 239.46 188.872C238.927 188.872 238.5 189.021 238.18 189.32C237.881 189.597 237.732 190.024 237.732 190.6Z" fill="#EBDACC"/>
<g clip-path="url(#clip0_4456_157)">
<path d="M120.391 162.034C149.415 162.034 172.943 159.256 172.943 155.83C172.943 152.404 149.415 149.626 120.391 149.626C91.3674 149.626 67.8391 152.404 67.8391 155.83C67.8391 159.256 91.3674 162.034 120.391 162.034Z" fill="white"/>
<path fill-rule="evenodd" clip-rule="evenodd" d="M174.337 117.897C177.271 110.37 178.782 102.302 178.782 94.1553H169.585C169.585 101.056 168.317 107.89 165.852 114.266C163.387 120.642 159.774 126.435 155.219 131.315C150.664 136.195 145.257 140.066 139.306 142.706C133.356 145.348 126.978 146.707 120.537 146.707C114.096 146.707 107.718 145.348 101.767 142.706C95.816 140.066 90.4089 136.195 85.8544 131.315C81.2998 126.435 77.687 120.642 75.2221 114.266C72.7572 107.89 71.4885 101.056 71.4885 94.1553H62C62 102.302 63.5103 110.37 66.4447 117.897C69.3791 125.424 73.6802 132.263 79.1023 138.024C84.5243 143.785 90.9613 148.355 98.0456 151.473C105.13 154.59 112.723 156.195 120.391 156.195C128.059 156.195 135.652 154.59 142.736 151.473C149.82 148.355 156.257 143.785 161.68 138.024C167.101 132.263 171.402 125.424 174.337 117.897Z" fill="white"/>
<path fill-rule="evenodd" clip-rule="evenodd" d="M161.056 112.31C163.234 106.677 164.378 100.648 164.426 94.5538C159.416 95.3399 148.477 97.2558 141.193 99.9944C135.407 102.169 131.47 105.937 127.698 109.546C122.803 114.23 118.186 118.647 110.172 118.971C103.804 119.229 99.9093 118.707 94.115 116.052C83.9955 111.415 75.8678 94.1553 75.8678 94.1553C75.8678 100.386 77.0132 106.555 79.2384 112.31C81.4637 118.067 84.7253 123.297 88.8371 127.702C92.9488 132.108 97.8302 135.603 103.202 137.986C108.575 140.371 114.333 141.598 120.148 141.598C125.962 141.598 131.72 140.371 137.093 137.986C142.465 135.603 147.346 132.108 151.458 127.702C155.57 123.297 158.832 118.067 161.056 112.31Z" fill="#EBDACC"/>
<path fill-rule="evenodd" clip-rule="evenodd" d="M183.321 107.054C181.582 105.332 179.504 103.991 177.22 103.114L170.886 119.616L161.869 134.818C163.973 136.066 166.314 136.864 168.743 137.16C171.171 137.458 173.635 137.247 175.978 136.542C178.321 135.836 180.492 134.653 182.354 133.065C184.216 131.478 185.728 129.521 186.794 127.319C187.861 125.117 188.458 122.717 188.549 120.272C188.64 117.827 188.222 115.389 187.322 113.114C186.422 110.839 185.059 108.775 183.321 107.054ZM179.048 112.593C178.028 111.583 176.808 110.796 175.467 110.281L171.749 119.967L166.456 128.891C167.692 129.624 169.065 130.092 170.491 130.266C171.917 130.44 173.363 130.316 174.738 129.903C176.114 129.489 177.388 128.794 178.481 127.862C179.574 126.93 180.462 125.782 181.087 124.489C181.714 123.196 182.064 121.788 182.117 120.353C182.17 118.917 181.925 117.486 181.398 116.151C180.869 114.815 180.069 113.604 179.048 112.593Z" fill="white"/>
<path d="M104.337 21.8965C104.337 21.8965 102.499 33.0415 104.337 39.7787C107.368 50.8893 121.943 50.655 123.679 62.0401C125.29 72.6108 113.825 87.5861 113.825 87.5861C113.825 87.5861 115.575 77.1166 113.825 70.7987C110.916 60.2935 97.6377 60.6245 95.213 49.997C92.6466 38.7482 104.337 21.8965 104.337 21.8965Z" fill="#EBDACC"/>
<path d="M110.172 33.5746C106.316 20.3335 121.121 0 121.121 0C121.121 0 115.355 17.9053 118.931 28.4654C122.683 39.5443 136.822 38.9454 139.368 50.3619C142.354 63.7512 125.135 82.4768 125.135 82.4768C125.135 82.4768 133.951 65.4023 130.974 54.7412C127.857 43.5785 113.413 44.702 110.172 33.5746Z" fill="#EBDACC"/>
</g>
<defs>
<clipPath id="clip0_4456_157">
<rect width="127" height="162.034" fill="white" transform="translate(62)"/>
</clipPath>
</defs>
</svg>
