<svg width="25" height="29" viewBox="0 0 25 29" fill="none" xmlns="http://www.w3.org/2000/svg">
<path d="M21.4286 1.78613H3.57143C1.59766 1.78613 0 3.38379 0 5.35756V23.2147C0 25.189 1.5971 26.7861 3.57143 26.7861H21.4286C23.4029 26.7861 25 25.189 25 23.2147V5.35756C25 3.38379 23.404 1.78613 21.4286 1.78613ZM21.4286 18.7504C21.4286 19.7365 20.6289 20.5361 19.6429 20.5361H5.35714C4.37109 20.5361 3.57143 19.7365 3.57143 18.7504V12.6064L11.3002 16.472C11.6797 16.6578 12.0871 16.7527 12.5 16.7527C12.9129 16.7527 13.3231 16.6585 13.6981 16.471L21.4286 12.6064V18.7504ZM21.4286 10.6087L12.9018 14.8732C12.6507 14.9987 12.3542 14.9987 12.1032 14.8732L3.57143 10.6087V9.82185C3.57143 8.8358 4.37109 8.03613 5.35714 8.03613H19.6429C20.6289 8.03613 21.4286 8.8358 21.4286 9.82185V10.6087Z" fill="#B2784A"/>
</svg>
