<svg width="20" height="23" viewBox="0 0 20 23" fill="none" xmlns="http://www.w3.org/2000/svg">
<path d="M17.1429 1.42871H2.85714C1.27902 1.42871 0 2.70773 0 4.28585V18.5716C0 20.1497 1.27902 21.4287 2.85714 21.4287H17.1429C18.721 21.4287 20 20.1497 20 18.5716V4.28585C20 2.70773 18.7188 1.42871 17.1429 1.42871ZM15.6964 14.3528L15.1777 16.6024C15.1048 16.9205 14.825 17.143 14.4973 17.143C8.86786 17.143 4.2875 12.5626 4.2875 6.92871C4.2875 6.60157 4.51 6.32201 4.82812 6.24925L7.07723 5.73005C7.40509 5.65402 7.74152 5.8242 7.87768 6.1346L8.91652 8.55782C9.0379 8.84313 8.95593 9.17523 8.71598 9.37121L7.51339 10.3573C8.27188 11.9024 9.52857 13.1586 11.0746 13.9176L12.0576 12.7162C12.2515 12.4755 12.5866 12.3925 12.8719 12.516L15.2933 13.554C15.6027 13.6876 15.7723 14.0269 15.6964 14.3528Z" fill="#B2784A"/>
</svg>
